<?xml version="1.0" standalone="no"?>
<!DOCTYPE svg PUBLIC "-//W3C//DTD SVG 20010904//EN"
 "http://www.w3.org/TR/2001/REC-SVG-20010904/DTD/svg10.dtd">
<svg version="1.0" xmlns="http://www.w3.org/2000/svg"
 width="625.000000pt" height="625.000000pt" viewBox="0 0 625.000000 625.000000"
 preserveAspectRatio="xMidYMid meet">
<metadata>
Created by potrace 1.11, written by Peter Selinger 2001-2013
</metadata>
<g transform="translate(0.000000,625.000000) scale(0.100000,-0.100000)"
fill="#000000" stroke="none">
<path d="M2807 5929 c-926 -95 -1749 -585 -2235 -1328 -376 -576 -523 -1265
-411 -1933 96 -572 362 -1083 783 -1504 466 -465 1037 -749 1726 -857 186 -29
681 -31 865 -4 842 126 1543 534 2027 1180 479 641 652 1459 473 2238 -241
1048 -1108 1887 -2210 2141 -244 56 -366 69 -660 73 -148 2 -310 -1 -358 -6z
m198 -68 c3 -5 -6 -22 -21 -38 -21 -23 -25 -34 -20 -63 12 -72 28 -271 22
-285 -14 -37 -52 -13 -175 106 -118 115 -149 135 -144 93 15 -123 26 -160 55
-186 38 -33 32 -58 -14 -58 -18 0 -50 -3 -70 -6 -44 -8 -48 3 -17 45 19 26 20
33 9 137 -16 148 -15 147 -50 166 -53 30 -21 58 67 58 39 0 50 -6 133 -81 49
-44 90 -85 90 -90 0 -11 48 -35 55 -27 3 3 1 36 -4 73 -8 55 -16 74 -41 100
-43 45 -30 54 97 63 12 1 24 -2 28 -7z m344 -15 c7 -8 36 -87 65 -175 42 -127
59 -165 82 -185 44 -38 25 -47 -84 -40 -93 7 -110 17 -77 44 23 19 19 66 -7
84 -35 24 -113 21 -138 -6 -24 -26 -25 -32 -4 -63 23 -36 10 -46 -49 -39 -84
9 -85 10 -40 57 23 23 55 70 71 104 44 89 103 195 120 216 18 21 45 22 61 3z
m380 -46 c96 -24 103 -33 64 -68 -25 -22 -36 -46 -57 -124 -33 -123 -33 -133
3 -169 65 -65 143 -25 180 91 32 103 37 147 16 170 -24 26 -13 55 18 45 12 -3
42 -12 67 -19 50 -14 58 -34 22 -52 -29 -15 -51 -44 -52 -69 0 -29 -37 -142
-57 -175 -22 -38 -82 -70 -129 -70 -79 0 -184 72 -200 136 -6 23 15 112 49
210 8 24 7 40 -2 62 -10 25 -9 53 2 52 1 0 35 -9 76 -20z m-1344 -74 c132 -61
165 -225 67 -330 -35 -37 -122 -76 -170 -76 -54 0 -138 45 -172 91 -37 52 -53
119 -40 168 16 60 62 115 121 145 67 33 127 34 194 2z m1834 -76 c20 -11 90
-45 156 -74 111 -50 120 -56 123 -83 4 -37 -28 -79 -51 -70 -10 4 -17 18 -17
34 0 38 -27 75 -52 71 -14 -2 -38 -39 -85 -132 -66 -128 -66 -129 -49 -157 16
-27 16 -30 0 -36 -9 -3 -31 1 -48 10 -17 9 -52 25 -78 36 -27 11 -48 25 -48
31 0 5 15 16 33 23 28 12 42 32 95 141 53 106 61 130 51 142 -14 17 -43 15
-96 -7 -18 -7 -35 -10 -39 -7 -18 19 28 98 57 98 6 0 28 -9 48 -20z m-2294
-152 c19 -35 19 -38 2 -73 -9 -19 -17 -42 -17 -49 0 -15 110 -60 173 -72 49
-8 46 -29 -8 -60 -54 -31 -79 -30 -159 11 -77 39 -106 44 -106 18 0 -26 47
-80 75 -87 38 -10 27 -26 -46 -68 -86 -49 -101 -49 -93 0 5 33 -1 50 -52 137
-70 122 -81 135 -111 135 -16 0 -23 6 -23 18 0 22 186 127 248 141 51 11 92
-7 117 -51z m2740 -82 c74 -46 95 -76 52 -76 -29 0 -45 -17 -132 -143 -61 -89
-66 -101 -56 -123 26 -57 9 -57 -84 0 -74 46 -95 76 -52 76 29 0 39 11 128
137 38 54 67 105 65 113 -3 8 -8 25 -12 38 -10 33 10 28 91 -22z m-3211 -107
c14 -11 26 -29 26 -40 0 -16 -7 -19 -44 -19 -48 0 -110 -29 -120 -57 -8 -21
59 -103 84 -103 24 0 40 29 40 69 0 44 29 41 74 -9 50 -55 48 -75 -4 -66 -45
7 -80 -6 -80 -31 0 -23 68 -103 89 -103 9 0 36 18 60 41 40 38 42 44 39 87 -2
37 0 47 14 50 21 4 71 -68 63 -90 -3 -8 -63 -59 -133 -113 -70 -55 -165 -138
-211 -185 l-84 -85 -9 33 c-9 35 -46 57 -79 47 -26 -9 -79 -72 -79 -95 0 -32
36 -61 65 -54 37 9 33 -24 -9 -69 -46 -50 -66 -49 -66 4 0 24 -8 52 -19 67
-10 15 -29 50 -42 77 -14 28 -42 83 -63 122 -40 75 -43 114 -10 127 8 3 90
-19 180 -49 91 -30 179 -55 196 -55 38 0 94 52 80 75 -4 9 -46 61 -92 115 -75
89 -88 100 -117 100 -22 0 -33 5 -33 14 0 13 235 216 250 216 4 0 19 -9 34
-21z m2018 -3 c518 -85 954 -308 1309 -673 172 -176 272 -314 382 -523 180
-343 259 -722 236 -1119 -51 -845 -610 -1591 -1437 -1915 -543 -213 -1212
-205 -1748 19 -527 221 -933 598 -1174 1090 -358 728 -276 1582 215 2233 149
198 345 383 555 524 140 93 393 217 560 272 115 38 366 94 490 110 82 10 518
-3 612 -18z m1499 -108 c32 -18 139 -127 139 -142 0 -16 -75 -86 -92 -86 -17
0 -19 4 -13 28 19 76 18 100 -8 126 -36 36 -71 42 -118 21 -75 -34 -158 -148
-145 -200 3 -12 20 -36 38 -54 28 -28 38 -31 90 -31 51 0 58 -2 58 -20 0 -13
-10 -22 -35 -29 -72 -20 -166 28 -213 108 -103 177 116 381 299 279z m353
-354 c28 -11 18 -50 -35 -141 -28 -48 -60 -104 -71 -123 -11 -19 -27 -44 -34
-55 -19 -27 -18 -94 3 -117 26 -29 55 -22 180 46 101 55 119 69 126 95 13 51
26 41 91 -67 42 -70 39 -93 -9 -68 -32 17 -26 19 -173 -58 -132 -70 -141 -84
-93 -145 28 -35 38 -40 79 -43 64 -4 69 -29 11 -58 -34 -18 -47 -20 -65 -11
-13 6 -24 16 -24 22 0 6 -8 23 -19 37 -10 15 -35 59 -56 97 -22 39 -50 91 -64
117 -14 25 -52 78 -83 116 -64 77 -72 98 -33 88 32 -8 65 24 65 63 0 35 -58
91 -95 91 -28 0 -55 -24 -55 -51 0 -10 -6 -19 -14 -19 -19 0 -76 67 -76 89 0
16 8 18 53 17 32 0 85 10 137 26 159 51 223 64 254 52z m-4353 -456 c22 -13
42 -32 45 -44 4 -14 -17 -61 -60 -141 -36 -67 -66 -125 -66 -129 0 -4 -8 -17
-18 -28 -10 -12 -26 -48 -36 -81 -24 -81 -44 -125 -55 -125 -6 0 -16 8 -23 18
-20 28 -34 33 -63 22 -36 -14 -69 -88 -55 -124 13 -36 48 -48 79 -29 36 23 46
4 27 -52 -9 -25 -21 -77 -26 -113 -5 -37 -15 -92 -21 -122 -6 -30 -13 -89 -16
-130 -3 -41 -10 -81 -16 -89 -7 -8 -42 -34 -79 -58 -80 -52 -92 -83 -32 -83
20 0 52 9 70 21 19 11 38 18 43 15 5 -4 9 -42 9 -86 0 -68 -2 -80 -16 -80 -9
0 -26 7 -36 15 -15 12 -52 15 -157 15 -123 0 -139 -2 -163 -21 -14 -11 -30
-18 -34 -15 -5 3 -8 63 -7 133 1 137 12 176 57 207 39 28 77 20 119 -24 21
-22 44 -40 50 -40 25 0 179 142 179 166 0 35 -29 48 -166 71 -139 23 -139 23
-166 3 -53 -39 -59 -25 -40 79 17 94 26 105 56 67 20 -24 33 -29 92 -36 38 -4
99 -13 136 -20 47 -8 72 -9 86 -1 47 25 28 89 -43 147 -242 198 -245 200 -245
221 0 27 31 40 112 47 274 22 276 22 312 47 72 49 55 75 -103 154 -114 57
-126 62 -157 52 -19 -6 -37 -7 -41 -3 -11 10 70 160 88 164 11 2 18 -6 22 -25
5 -24 22 -36 130 -91 69 -34 132 -62 140 -62 21 0 54 44 62 80 5 22 1 40 -15
65 -19 31 -22 65 -5 65 3 0 24 -10 46 -22z m4809 -400 c44 -30 77 -98 84 -175
l6 -62 -46 -21 c-26 -11 -52 -20 -59 -20 -29 0 -22 31 15 77 46 54 48 70 19
107 -44 56 -99 19 -99 -68 0 -115 -45 -176 -130 -176 -43 0 -54 5 -83 33 -48
48 -65 92 -68 177 -4 73 -3 75 24 88 15 7 43 16 62 19 46 7 46 -12 0 -67 -44
-53 -48 -108 -10 -145 27 -28 43 -31 70 -12 14 11 20 33 25 98 7 96 19 122 63
149 42 26 86 25 127 -2z m49 -403 c203 -108 131 -405 -99 -405 -132 0 -227
101 -218 231 7 91 72 167 162 190 40 10 122 2 155 -16z m19 -506 c69 -39 121
-135 109 -198 -13 -64 -38 -135 -49 -143 -18 -11 -62 -10 -93 2 -36 14 -29 42
13 54 35 10 92 67 92 92 0 24 -38 73 -69 89 -41 21 -151 30 -194 16 -84 -28
-112 -112 -57 -174 34 -40 39 -67 11 -67 -23 0 -68 51 -88 99 -20 46 -10 107
27 164 34 54 65 76 128 92 54 14 118 4 170 -26z m-5174 -205 c9 -8 18 -25 21
-37 5 -26 32 -177 40 -230 3 -21 9 -45 12 -53 7 -19 -21 -18 -53 2 -21 14 -33
15 -77 6 -29 -6 -89 -18 -135 -27 -67 -12 -88 -20 -106 -42 -12 -14 -28 -23
-34 -19 -6 3 -13 32 -17 64 -3 31 -12 77 -20 102 -23 72 -28 133 -13 153 7 9
30 20 51 24 46 7 49 -9 12 -63 -14 -20 -25 -45 -25 -55 0 -32 18 -67 37 -71
25 -5 95 12 111 27 18 16 3 46 -32 65 -51 27 -26 54 61 66 62 8 76 -7 40 -44
-24 -26 -31 -42 -28 -71 2 -22 118 -8 143 17 19 18 19 21 3 70 -13 39 -23 53
-47 63 -44 18 -61 38 -47 55 16 19 84 18 103 -2z m4874 -198 c14 -15 39 -27
65 -31 44 -6 106 -19 170 -36 39 -10 77 -5 77 12 0 5 11 9 25 9 14 0 25 -2 25
-4 0 -2 -6 -31 -14 -63 -8 -32 -17 -70 -20 -85 -8 -35 -21 -35 -54 0 -23 24
-45 31 -156 51 -124 23 -131 24 -159 7 -40 -23 -51 -9 -32 43 8 24 15 54 15
66 0 58 21 69 58 31z m-60 -243 c14 -20 44 -36 98 -56 44 -15 101 -36 128 -47
45 -18 52 -18 73 -5 31 21 57 20 50 -2 -12 -38 -68 -189 -77 -208 -5 -11 -12
-30 -15 -43 -4 -12 -17 -30 -30 -38 -21 -13 -28 -14 -52 -2 -38 18 -35 39 9
60 43 21 68 53 68 89 0 21 -9 30 -49 48 -39 19 -52 21 -70 12 -25 -14 -28 -48
-6 -77 34 -45 11 -55 -67 -28 -42 14 -72 44 -51 51 40 14 79 41 81 58 2 17 -8
26 -52 44 -66 27 -93 22 -112 -25 -20 -49 -17 -82 11 -116 14 -16 25 -34 25
-39 0 -20 -32 -21 -66 -3 -50 26 -61 50 -41 88 8 17 34 81 57 141 23 61 44
113 47 118 8 14 22 7 41 -20z m-4896 -59 c16 -16 37 -44 46 -63 10 -19 24 -39
33 -44 25 -16 70 1 104 39 25 27 34 32 42 22 18 -25 62 -158 53 -163 -5 -3
-23 1 -40 10 -22 11 -35 13 -49 6 -10 -6 -52 -21 -92 -35 -124 -40 -156 -56
-167 -82 -20 -42 -39 -29 -62 44 -12 37 -29 77 -36 89 -21 33 -28 133 -12 163
31 58 125 65 180 14z m364 -355 c50 -76 50 -97 -2 -77 -28 10 -37 7 -127 -46
-53 -31 -97 -61 -97 -66 0 -17 17 -19 61 -5 51 16 168 37 219 39 53 2 54 -34
3 -88 -56 -59 -143 -166 -143 -177 0 -14 30 1 117 57 64 43 83 60 88 84 11 48
39 39 75 -26 18 -30 29 -58 26 -62 -4 -3 -21 -1 -39 6 -30 11 -37 9 -112 -35
-44 -26 -97 -56 -118 -67 -28 -16 -40 -31 -48 -59 -6 -22 -15 -37 -22 -34 -20
6 -86 110 -86 136 -1 15 22 48 64 96 36 40 65 80 65 90 0 19 10 20 -145 -8
-38 -7 -78 -11 -88 -9 -21 4 -100 120 -91 133 3 5 22 6 42 3 33 -5 50 2 155
66 76 47 117 78 117 89 0 20 20 42 31 35 4 -2 29 -36 55 -75z m4334 -11 c0
-13 4 -28 8 -34 13 -21 247 -145 267 -142 27 4 31 47 10 88 -24 47 -6 62 43
34 44 -26 54 -64 25 -96 -18 -20 -79 -121 -128 -210 -20 -38 -31 -48 -51 -48
-33 0 -74 28 -74 51 0 15 7 19 40 19 43 0 84 29 74 53 -2 7 -60 44 -127 81
-115 65 -124 68 -159 59 -51 -14 -54 2 -12 71 19 31 34 61 34 66 0 9 29 29 43
30 4 0 7 -10 7 -22z m-228 -349 c7 -73 157 -129 306 -116 52 5 62 4 62 -9 0
-16 -108 -144 -121 -144 -4 0 -14 12 -21 28 -12 24 -21 28 -77 36 -80 10 -91
2 -67 -56 28 -68 32 -73 55 -76 34 -5 36 -29 6 -68 -35 -45 -72 -45 -67 0 2
17 -3 46 -11 65 -8 20 -23 63 -33 96 -24 82 -71 128 -127 123 -24 -2 -42 2
-44 8 -5 14 107 144 124 144 6 0 13 -14 15 -31z m-3768 -100 c31 -34 55 -66
53 -73 -2 -6 -18 -10 -35 -8 -25 3 -41 -5 -79 -40 -27 -24 -74 -65 -105 -92
-50 -41 -58 -52 -58 -82 0 -22 -5 -34 -14 -34 -15 0 -107 94 -126 129 -12 24
-12 24 28 17 39 -6 43 -4 109 57 37 34 85 75 106 91 30 23 37 35 37 62 0 49
19 43 84 -27z m1402 -783 c3 -7 -5 -62 -16 -121 l-22 -108 22 -29 c29 -39 16
-53 -36 -39 -22 6 -58 11 -82 11 -51 0 -67 23 -35 49 29 22 40 47 48 110 7 52
6 56 -20 77 -34 27 -25 44 23 44 20 0 44 5 52 10 22 14 60 12 66 -4z m937 -11
c20 -14 44 -39 52 -56 22 -42 30 -120 16 -162 -25 -75 -161 -191 -204 -174
-27 10 -20 24 26 56 67 46 97 104 62 118 -9 3 -24 -2 -34 -11 -29 -27 -85 -20
-125 14 -65 58 -69 135 -8 193 54 51 156 61 215 22z m-644 -13 c19 -9 48 -34
65 -55 28 -35 31 -45 29 -103 -1 -46 -8 -75 -23 -98 -47 -77 -151 -142 -216
-134 -44 5 -36 30 15 49 56 20 107 74 91 94 -9 11 -17 11 -35 3 -67 -30 -155
36 -155 117 0 36 6 51 32 81 56 63 129 80 197 46z m300 -5 c6 -8 10 -29 9 -48
-1 -19 -1 -66 0 -106 2 -64 5 -75 29 -97 17 -16 24 -29 18 -35 -14 -12 -195
-21 -195 -9 0 6 11 23 24 39 24 28 27 60 17 161 -1 3 -14 11 -31 17 -40 13
-38 26 8 44 20 9 46 22 57 31 25 19 49 20 64 3z"/>
<path d="M3246 5691 c-21 -39 -11 -61 25 -61 35 0 45 18 32 57 -13 39 -39 41
-57 4z"/>
<path d="M2201 5673 c-30 -38 -35 -65 -21 -125 18 -74 44 -123 83 -152 46 -35
79 -33 112 6 25 29 27 38 23 93 -6 70 -44 152 -84 184 -38 30 -87 28 -113 -6z"/>
<path d="M1722 5468 c-7 -7 -12 -18 -12 -24 0 -21 62 -114 76 -114 23 0 57 58
50 86 -14 53 -82 84 -114 52z"/>
<path d="M1025 4780 c-10 -16 33 -80 55 -80 14 0 40 30 40 45 0 15 -49 45 -74
45 -8 0 -18 -4 -21 -10z"/>
<path d="M2890 5168 c-52 -5 -151 -20 -218 -34 -811 -163 -1449 -767 -1641
-1549 -40 -164 -46 -226 -46 -460 0 -234 6 -296 46 -460 69 -280 190 -532 368
-765 36 -47 120 -140 187 -206 533 -529 1301 -738 2044 -557 543 132 1022 483
1313 961 383 632 382 1424 -2 2057 -424 699 -1219 1092 -2051 1013z m464 -58
c94 -32 179 -106 262 -225 114 -165 105 -144 125 -298 30 -237 22 -347 -25
-347 -35 0 -47 22 -56 97 -8 70 -29 161 -55 247 -24 78 -77 163 -170 274 -133
159 -185 228 -185 244 0 34 24 36 104 8z m-726 -62 c21 -21 13 -39 -33 -82
-37 -35 -55 -66 -113 -201 -38 -88 -78 -189 -90 -225 -25 -81 -50 -241 -53
-340 -2 -63 0 -76 14 -78 19 -4 19 -1 17 -103 -1 -78 18 -166 60 -269 37 -90
60 -191 60 -261 0 -56 -5 -76 -35 -132 -19 -36 -35 -74 -35 -83 0 -21 28 -54
46 -54 20 0 44 -29 37 -46 -7 -20 -56 -44 -88 -44 -32 0 -73 21 -99 49 -25 28
-36 27 -36 -3 0 -14 15 -40 35 -62 l35 -37 72 7 c78 7 93 14 102 51 12 47 80
28 99 -28 10 -28 -3 -66 -24 -72 -31 -10 -22 -33 13 -37 34 -3 43 -15 29 -37
-12 -19 -187 -39 -203 -23 -9 9 -7 16 5 30 33 36 13 65 -36 54 -14 -4 -17 -12
-15 -35 3 -31 -1 -34 -54 -56 -37 -14 -36 -41 2 -84 17 -19 33 -49 36 -66 10
-48 -23 -40 -77 19 -43 47 -49 50 -92 49 -38 -2 -56 4 -101 34 -30 20 -65 50
-77 67 -23 30 -52 39 -64 20 -17 -28 -128 7 -218 68 -118 82 -314 266 -342
322 -10 19 -37 64 -60 100 -61 92 -99 225 -99 350 -1 106 11 140 48 140 27 0
54 -37 109 -146 38 -75 72 -113 87 -98 6 6 -5 53 -31 129 -71 208 -80 335 -31
419 45 78 103 23 161 -152 11 -35 39 -97 62 -140 23 -42 63 -119 90 -171 32
-63 66 -113 105 -152 l57 -57 -22 -36 c-18 -29 -21 -43 -15 -88 9 -73 25 -97
22 -33 -3 46 -1 50 20 53 18 3 41 -13 92 -62 37 -36 75 -66 84 -66 31 0 16 42
-40 107 -54 64 -72 95 -90 158 -7 22 -17 31 -40 36 -48 9 -53 16 -96 108 -22
47 -53 115 -70 151 -72 155 -99 271 -99 435 0 130 24 225 70 274 52 55 75 39
85 -59 12 -124 85 -351 127 -394 18 -19 18 -19 25 -1 4 10 -2 66 -14 124 -27
130 -28 194 -3 269 10 31 21 82 23 112 4 47 11 65 46 111 39 52 103 99 135 99
30 0 40 -26 28 -77 -6 -27 -18 -120 -27 -207 -13 -129 -14 -174 -4 -238 12
-85 30 -137 54 -157 24 -20 31 10 11 49 -33 64 -17 295 33 472 18 62 28 77
117 173 103 112 114 120 185 147 55 20 73 21 88 6z m1183 -55 c22 -20 48 -50
57 -67 22 -42 70 -160 87 -216 34 -110 45 -316 23 -422 -7 -31 -9 -61 -4 -65
12 -12 40 12 60 53 35 72 46 138 56 338 6 109 13 202 16 207 14 23 58 7 99
-34 64 -63 80 -126 79 -299 -1 -122 -4 -147 -29 -223 -30 -92 -75 -170 -162
-278 -73 -91 -88 -88 -88 18 0 67 -4 88 -26 130 -29 55 -51 66 -80 39 -26 -24
-24 -33 10 -45 43 -15 54 -53 49 -163 -4 -90 -5 -96 -45 -157 -39 -59 -45 -79
-22 -79 5 0 40 32 78 71 53 55 74 70 92 67 22 -3 24 -7 21 -53 -4 -81 -20
-114 -93 -187 -69 -69 -77 -82 -59 -93 16 -10 51 14 126 86 40 38 76 69 82 69
21 0 34 -31 29 -66 -10 -58 -44 -115 -115 -186 -50 -51 -63 -71 -55 -79 19
-19 53 -3 127 56 85 68 125 73 116 16 -3 -21 -81 -121 -129 -164 -27 -25 -51
-37 -70 -37 -23 0 -30 -5 -36 -27 -17 -72 -111 -163 -167 -163 -34 0 -35 12
-9 89 10 31 31 100 47 155 l28 99 -27 47 c-20 35 -27 62 -27 99 0 45 -5 56
-37 93 -56 63 -75 73 -87 43 -9 -24 3 -42 40 -64 34 -20 34 -21 34 -96 0 -68
2 -77 25 -97 15 -13 25 -32 25 -49 0 -15 -11 -41 -25 -57 -29 -34 -31 -54 -10
-72 23 -19 18 -39 -12 -46 -27 -7 -34 -2 -95 74 -23 29 -42 28 -62 -3 -18 -28
-38 -32 -54 -12 -13 15 10 57 30 57 7 0 22 10 35 22 21 20 27 21 56 10 26 -10
34 -9 47 4 13 14 12 18 -18 42 -22 19 -32 35 -32 55 0 20 -10 37 -32 55 -115
97 -123 107 -123 164 1 52 17 115 75 295 33 98 32 118 -5 222 -20 58 -19 71 7
71 30 0 103 -82 118 -133 7 -23 16 -52 21 -65 12 -31 11 -73 -3 -127 -25 -92
33 -81 67 13 9 26 25 64 36 85 22 40 22 82 1 82 -7 0 -18 -11 -25 -25 -7 -14
-20 -26 -29 -28 -14 -3 -16 22 -22 220 -6 249 -19 431 -35 498 -29 122 -50
199 -60 218 -33 62 46 73 110 15z m706 -451 c31 -40 33 -49 33 -118 0 -248
-73 -429 -258 -641 -61 -70 -84 -77 -133 -42 -25 18 -29 27 -29 70 0 27 -5 69
-12 94 l-12 45 41 43 c120 125 241 353 278 527 18 83 41 89 92 22z m255 -235
l43 -34 -2 -89 c-2 -119 -17 -181 -71 -294 -40 -84 -59 -108 -151 -201 -133
-133 -264 -232 -295 -223 -19 5 -96 78 -96 91 0 3 8 28 18 55 13 38 31 63 76
102 65 56 163 178 219 272 20 34 65 119 99 190 64 135 83 164 104 164 7 0 32
-15 56 -33z m-1462 -86 c0 -11 -15 -28 -36 -40 -59 -35 -36 -54 44 -36 23 6
32 4 32 -5 0 -23 -32 -50 -60 -50 -30 0 -54 -22 -48 -41 2 -7 20 -18 39 -24
41 -14 55 -55 19 -55 -61 0 -80 -49 -29 -75 41 -22 36 -51 -9 -47 -38 4 -41
-11 -16 -64 19 -40 13 -64 -16 -64 -31 0 -25 -37 15 -86 19 -23 35 -50 35 -60
0 -14 -7 -16 -45 -11 -25 4 -45 3 -45 -2 0 -14 34 -38 72 -50 41 -14 51 -31
38 -65 -18 -49 -64 -54 -100 -12 -12 15 -50 23 -50 11 0 -4 7 -20 16 -38 16
-30 16 -32 -5 -45 -45 -31 -8 -71 42 -46 23 12 35 13 63 4 53 -18 74 -79 34
-100 -24 -13 -25 -31 -5 -88 19 -54 6 -87 -30 -78 -29 7 -55 -24 -55 -66 0
-22 7 -31 33 -41 78 -34 86 -89 12 -95 -63 -6 -145 67 -120 108 10 15 -4 50
-20 50 -8 0 -22 -11 -31 -25 -22 -33 -50 -48 -76 -40 -17 6 -20 13 -15 46 4
27 1 39 -7 39 -25 0 -80 -45 -86 -70 -4 -18 -13 -25 -30 -25 -21 0 -26 5 -28
33 -4 42 -26 51 -56 23 -12 -11 -32 -21 -43 -21 -39 0 -34 29 12 78 50 52 100
137 90 152 -10 16 -48 11 -75 -10 -30 -23 -53 -25 -70 -6 -15 19 -5 36 44 75
43 34 48 36 78 20 33 -17 52 9 43 59 -10 60 -28 70 -66 38 -39 -33 -59 -33
-59 -1 0 17 12 32 43 54 23 16 55 49 72 74 16 24 44 54 63 66 18 12 32 27 29
34 -7 23 -35 18 -66 -14 -30 -30 -34 -31 -49 -15 -15 15 -15 17 3 36 11 10 51
36 90 57 38 21 71 46 73 56 5 23 -19 22 -46 -3 -44 -42 -62 -21 -42 50 20 70
-45 196 -121 236 -16 8 -29 23 -29 33 0 9 -11 28 -24 40 -21 20 -31 22 -69 17
-34 -5 -47 -3 -58 10 -12 14 -10 19 16 41 27 24 34 25 100 20 38 -3 85 -12
103 -19 32 -12 35 -12 60 19 37 43 67 48 171 27 l89 -18 59 31 c69 37 103 42
103 14z m1680 -257 c33 -68 25 -152 -23 -230 -19 -33 -46 -88 -58 -124 -20
-57 -34 -76 -118 -158 -55 -53 -120 -105 -151 -122 -30 -15 -113 -67 -185
-116 -149 -100 -244 -147 -331 -164 -145 -29 -134 49 31 210 42 41 84 87 93
102 9 15 39 39 67 52 69 34 286 209 433 352 102 99 126 128 140 169 23 67 29
75 57 75 18 0 28 -11 45 -46z m131 -335 c15 -28 6 -78 -32 -186 -32 -88 -32
-88 -170 -225 -143 -142 -236 -218 -265 -218 -10 0 -26 8 -37 18 -19 16 -20
16 -31 -2 -53 -89 -92 -120 -192 -155 -69 -25 -128 -78 -166 -151 -20 -38 -23
-60 -23 -145 0 -120 -11 -146 -87 -201 -29 -21 -61 -49 -71 -61 -10 -13 -27
-23 -37 -23 -53 0 -200 -88 -200 -120 0 -11 6 -20 14 -20 20 0 131 65 185 109
43 34 47 35 160 42 166 9 187 21 382 220 145 148 158 159 192 159 47 0 47 -15
1 -60 -49 -48 -55 -60 -125 -280 -16 -50 -34 -67 -93 -86 -72 -23 -101 -40
-147 -81 -52 -47 -69 -81 -69 -136 0 -48 19 -74 46 -63 12 5 15 15 11 39 -9
61 35 126 114 167 43 23 174 54 193 47 8 -3 22 0 31 7 15 11 15 13 -4 30 -12
11 -21 25 -21 32 0 19 79 166 102 192 12 12 27 22 33 22 51 0 156 79 232 174
13 15 29 26 35 24 33 -11 12 -91 -43 -170 -20 -28 -25 -58 -10 -58 5 0 19 13
31 30 44 62 76 25 36 -43 -14 -24 -26 -54 -26 -67 0 -69 -123 -164 -279 -215
-44 -14 -74 -37 -157 -115 -125 -117 -199 -158 -313 -171 -88 -11 -146 -4
-181 21 -14 10 -50 30 -80 45 -76 38 -92 53 -79 76 7 14 21 19 54 19 56 0 75
8 75 30 0 39 -50 34 -152 -14 -41 -19 -59 -35 -69 -58 -30 -73 -187 -198 -249
-198 -40 0 -19 36 70 122 49 48 90 92 90 97 0 6 -10 11 -21 11 -23 0 -179
-145 -179 -166 0 -7 -27 -49 -60 -93 -67 -88 -135 -137 -229 -165 -68 -20
-111 -20 -156 -2 -50 21 -183 109 -190 125 -9 21 14 41 49 41 34 0 113 25 133
42 7 6 30 8 50 5 80 -10 129 10 207 82 39 37 86 78 104 90 32 22 38 41 14 49
-6 2 -35 -18 -63 -45 -50 -47 -53 -48 -113 -47 -33 0 -72 4 -85 9 -23 8 -24 6
-18 -21 9 -46 -5 -58 -59 -55 -12 0 -34 13 -49 27 -20 19 -30 23 -39 14 -8 -8
-5 -16 13 -29 29 -22 23 -47 -14 -61 -40 -15 -157 -12 -179 5 -27 20 -56 19
-56 -2 0 -23 52 -113 79 -137 51 -46 11 -83 -74 -67 -110 21 -173 72 -200 164
-20 68 -6 164 26 187 49 34 72 61 61 72 -12 12 -62 -14 -62 -32 0 -5 -18 -29
-40 -55 -21 -25 -49 -67 -60 -93 -26 -57 -57 -91 -135 -146 -79 -56 -214 -116
-261 -116 -23 0 -122 91 -135 125 -21 54 -83 145 -104 151 -13 5 -23 1 -30
-11 -31 -52 -29 -51 -81 -32 -26 9 -85 43 -131 75 -125 85 -139 93 -157 86
-24 -9 -20 -19 17 -36 17 -8 60 -40 94 -69 34 -30 73 -62 87 -72 58 -40 -22
-52 -92 -14 -24 13 -66 45 -94 72 -42 41 -49 52 -44 76 5 26 2 29 -47 43 -65
19 -125 60 -138 93 -17 45 16 58 61 23 23 -18 36 -19 137 -13 l112 6 49 -32
c54 -35 232 -100 273 -101 31 0 54 23 45 45 -7 20 -63 43 -144 60 -54 12 -73
21 -110 57 -62 60 -102 117 -102 145 0 29 13 29 59 1 20 -13 67 -35 104 -51
75 -30 117 -28 117 4 0 17 -8 19 -63 19 -47 0 -68 5 -83 18 -10 10 -50 40 -87
68 -61 46 -74 52 -135 57 -109 11 -257 69 -416 164 -62 38 -93 86 -80 125 7
24 38 21 124 -10 105 -39 291 -78 480 -102 47 -6 119 -15 160 -21 41 -5 133
-14 204 -19 119 -8 132 -7 167 11 72 36 193 19 262 -38 34 -28 57 -30 57 -5 0
23 -19 40 -83 77 -54 31 -40 31 -352 5 -145 -12 -205 -3 -272 44 -39 27 -49
40 -55 72 -3 21 -2 56 4 77 15 51 2 64 -45 46 -35 -12 -40 -11 -164 51 -127
63 -130 65 -268 205 -179 180 -215 225 -232 288 -20 77 7 177 49 177 23 0 156
-125 274 -260 146 -165 365 -338 499 -396 70 -29 82 -45 60 -77 -10 -14 -13
-33 -9 -53 5 -26 2 -34 -15 -44 -17 -9 -19 -15 -11 -30 14 -26 47 -26 55 0 9
27 31 25 67 -5 24 -20 37 -25 59 -20 16 4 89 7 161 8 159 1 202 -14 276 -92
33 -34 67 -57 112 -76 126 -51 190 -87 232 -131 23 -24 48 -44 54 -44 10 0 64
62 64 73 0 3 -16 14 -35 26 -43 25 -44 38 -4 75 26 25 30 35 25 60 -4 17 -15
39 -25 49 -18 18 -19 18 -39 -3 -25 -27 -49 -23 -76 13 -25 34 -15 56 35 72
46 15 78 75 61 117 -40 96 -39 88 -13 109 13 10 33 19 45 19 20 0 21 -5 21
-64 0 -57 4 -68 31 -103 17 -21 71 -62 120 -91 49 -29 110 -73 136 -99 53 -52
58 -45 28 35 -22 56 -19 79 18 187 6 17 14 44 19 60 11 40 44 45 72 9 11 -15
21 -35 21 -46 0 -39 19 -58 58 -58 41 0 56 -8 64 -30 6 -18 -16 -66 -45 -98
-18 -19 -19 -26 -9 -40 41 -58 54 -172 28 -248 -20 -59 -6 -83 25 -44 22 28
89 166 89 184 0 7 -13 22 -30 34 -33 25 -64 77 -55 92 12 19 34 10 63 -26 17
-20 35 -33 41 -30 27 17 5 187 -34 271 -20 41 -24 60 -16 68 16 16 57 -10 89
-55 34 -47 67 -52 57 -9 -5 26 0 37 35 75 23 25 72 66 110 92 97 66 119 52 83
-52 -19 -56 -31 -78 -90 -156 -31 -40 -43 -66 -43 -90 0 -69 -43 -171 -90
-213 -11 -10 -20 -24 -20 -32 0 -22 36 -15 105 23 83 46 173 144 229 249 34
66 50 85 96 116 55 37 187 92 247 104 20 4 42 19 55 37 43 56 71 78 98 78 17
0 30 7 34 16 8 20 -19 64 -39 64 -15 0 -75 -68 -75 -86 0 -31 -106 -91 -220
-125 -116 -34 -145 -52 -189 -118 -46 -68 -91 -104 -124 -99 -36 5 -33 41 8
87 33 36 164 131 181 131 28 0 235 136 407 268 32 24 84 57 115 73 31 16 82
50 112 75 126 104 253 221 271 252 24 37 53 42 70 11z m43 -415 c-2 -119 -76
-225 -234 -333 -89 -61 -106 -83 -73 -95 22 -9 117 20 174 52 28 15 53 23 64
19 47 -19 -67 -97 -173 -118 -55 -12 -68 -11 -116 5 -68 23 -84 18 -88 -30 -3
-35 -7 -39 -54 -58 -64 -27 -183 -127 -264 -222 -34 -41 -70 -79 -80 -84 -9
-5 -41 -10 -71 -12 -50 -3 -54 -1 -57 20 -5 31 93 165 138 190 19 11 51 23 70
27 60 12 184 67 213 94 63 57 87 152 40 159 -25 4 -41 -20 -41 -63 1 -57 -72
-96 -264 -140 -37 -8 -73 -12 -82 -9 -26 10 -28 36 -2 63 13 14 32 44 43 66
16 36 25 43 98 70 44 17 115 49 157 73 42 24 110 54 149 68 120 42 130 48 256
160 87 77 108 98 141 138 38 45 57 31 56 -40z m-1724 19 c58 -34 66 -103 9
-72 -32 16 -48 39 -49 67 0 26 4 27 40 5z m270 -43 c0 -11 -15 -37 -33 -56
-38 -42 -66 -41 -85 2 -11 23 -10 26 22 39 19 8 37 19 41 25 3 5 17 10 31 10
17 0 24 -5 24 -20z m-316 -21 c31 -25 35 -59 6 -59 -36 0 -74 53 -53 73 10 11
19 8 47 -14z m-2257 -72 c21 -18 62 -44 92 -56 73 -31 197 -109 300 -189 51
-40 102 -70 132 -79 33 -10 50 -21 55 -35 3 -12 18 -32 32 -45 35 -32 20 -59
-29 -55 -57 4 -237 51 -318 82 -118 46 -311 179 -311 214 0 7 -13 25 -29 40
-23 22 -31 41 -37 83 -7 61 0 73 48 73 18 0 42 -13 65 -33z m2638 13 c15 -16
16 -22 5 -35 -16 -20 -59 -16 -73 7 -8 12 -7 21 2 32 18 22 44 20 66 -4z
m-217 -13 c2 -10 -3 -17 -12 -17 -18 0 -29 16 -21 31 9 14 29 6 33 -14z m-134
-58 c14 -17 26 -35 26 -40 0 -17 20 -9 71 27 58 41 94 43 94 4 0 -17 -12 -32
-42 -53 -30 -20 -43 -35 -43 -51 0 -34 -22 -49 -54 -36 -21 8 -26 16 -26 43 0
28 -4 34 -32 42 -37 12 -73 56 -65 79 10 26 43 19 71 -15z m-645 -128 c14 -10
45 -28 69 -40 48 -25 55 -53 22 -89 -31 -33 -57 -28 -74 13 -24 56 -45 47 -89
-36 -24 -45 -88 -98 -119 -99 -9 0 -29 19 -45 42 -17 26 -40 46 -61 53 -63 20
-68 69 -9 80 19 4 48 20 63 36 34 35 51 36 98 4 53 -36 70 -34 62 10 -4 20 -4
40 0 46 8 13 50 3 83 -20z m-356 -33 c17 -26 2 -49 -25 -39 -27 10 -36 40 -16
52 16 11 29 7 41 -13z m702 -16 c0 -25 -6 -37 -27 -49 -22 -14 -29 -14 -42 -4
-36 30 -4 94 43 89 22 -3 26 -8 26 -36z m-1070 -45 c33 -18 40 -28 40 -52 0
-43 -33 -45 -79 -5 -34 30 -45 58 -29 73 11 11 26 8 68 -16z m1155 -33 c34
-30 39 -76 8 -82 -18 -3 -78 70 -78 95 0 22 36 15 70 -13z m-975 -29 c0 -13
-8 -21 -24 -23 -28 -4 -45 17 -29 36 17 20 53 11 53 -13z m539 -76 c-3 -39
-31 -104 -47 -107 -34 -7 -24 78 15 125 16 20 33 10 32 -18z m-1263 -339 c21
-12 25 -45 7 -56 -22 -14 -118 -6 -144 10 -26 18 -32 41 -11 49 23 10 128 7
148 -3z m3366 -226 c7 -18 -30 -60 -60 -68 -12 -3 -62 -51 -111 -106 -53 -59
-100 -103 -115 -107 -14 -3 -58 -22 -99 -40 -51 -24 -82 -33 -99 -28 -43 10
-24 38 42 61 33 11 72 27 87 35 38 20 110 90 174 169 41 51 66 73 97 84 55 19
76 19 84 0z m-879 -208 c-2 -14 -11 -22 -28 -24 -14 -2 -35 -8 -47 -14 -30
-15 -60 -3 -43 17 7 8 21 15 31 15 11 0 28 9 39 20 24 24 52 16 48 -14z m-98
-121 c16 -20 6 -43 -24 -57 -48 -21 -80 37 -33 60 31 15 43 14 57 -3z m715
-25 c11 -18 -4 -45 -33 -62 -68 -40 -197 -47 -190 -10 2 10 17 19 38 23 19 3
58 17 85 32 53 27 90 34 100 17z m-2757 -38 c19 -25 -6 -46 -40 -33 -31 12
-42 27 -34 48 8 19 55 10 74 -15z m720 -100 c4 -14 -33 -25 -58 -17 -25 8 -26
31 -2 44 18 10 52 -5 60 -27z m1332 3 c338 -7 380 -10 380 -31 0 -20 -29 -63
-51 -75 -31 -16 -700 58 -722 80 -7 7 -6 16 4 27 10 12 23 15 54 10 22 -3 173
-8 335 -11z m525 -35 c18 -28 -64 -90 -100 -76 -23 8 -18 25 16 57 31 29 72
38 84 19z m-1345 -36 c120 -11 103 -44 -35 -68 -63 -11 -142 -36 -265 -87
-168 -68 -177 -71 -217 -60 -55 14 -84 3 -111 -43 -29 -49 -80 -73 -121 -57
-99 42 16 142 207 182 32 6 100 31 152 55 52 23 118 48 145 55 28 6 64 17 80
25 17 7 46 11 65 9 19 -3 64 -8 100 -11z m-513 -9 c19 -7 4 -34 -29 -51 -52
-27 -169 -43 -336 -45 l-163 -2 -28 33 c-28 34 -28 34 -54 17 -15 -9 -33 -17
-41 -17 -37 0 -29 54 9 67 25 8 619 6 642 -2z m841 -76 c2 -16 -6 -35 -23 -53
-23 -24 -31 -28 -63 -22 -20 3 -74 9 -119 12 -89 7 -104 20 -58 50 41 26 116
43 190 41 67 -2 70 -3 73 -28z m537 17 c34 -25 12 -42 -62 -49 -86 -9 -167 -9
-187 -1 -21 8 -20 40 2 53 27 16 224 14 247 -3z m-321 -72 c22 -9 20 -31 -5
-44 -16 -9 -26 -8 -45 5 -34 22 -31 45 5 45 16 0 36 -3 45 -6z m516 -14 c0 -5
-4 -10 -10 -10 -5 0 -10 5 -10 10 0 6 5 10 10 10 6 0 10 -4 10 -10z m-82 -36
c2 -17 -15 -32 -85 -76 -80 -51 -94 -56 -161 -61 -47 -4 -93 -15 -129 -31 -43
-20 -71 -26 -127 -26 -40 0 -98 -7 -129 -15 -79 -21 -89 -19 -149 16 -29 17
-59 34 -67 38 -25 12 -12 26 26 28 108 7 755 131 772 149 13 12 46 -3 49 -22z
m-819 -27 c34 -17 29 -31 -16 -40 -90 -19 -147 -40 -214 -78 -39 -22 -96 -46
-126 -52 l-56 -12 -38 44 c-40 45 -49 74 -26 88 33 21 276 60 387 62 36 0 76
-5 89 -12z m-561 -117 c28 -49 28 -70 0 -70 -28 0 -88 46 -88 69 0 23 19 41
45 41 13 0 28 -14 43 -40z m440 -36 c23 -16 29 -48 11 -59 -20 -13 -59 5 -65
30 -11 44 13 58 54 29z"/>
<path d="M1963 4044 c-7 -19 22 -84 37 -84 6 0 18 -16 26 -35 15 -37 40 -46
51 -19 4 10 -4 24 -20 37 -14 12 -28 33 -32 47 -9 33 -33 70 -46 70 -5 0 -12
-7 -16 -16z"/>
<path d="M2228 3974 c-20 -43 -39 -69 -54 -74 -32 -12 -31 -46 1 -109 25 -51
67 -91 92 -91 12 0 14 8 9 38 -16 95 -17 160 -2 221 8 36 13 68 10 73 -12 19
-27 4 -56 -58z"/>
<path d="M2030 3815 c0 -9 7 -30 16 -46 17 -33 13 -59 -9 -59 -7 0 -31 18 -52
40 -37 38 -75 53 -75 29 0 -11 37 -53 113 -131 44 -44 105 -78 142 -78 33 0
32 11 -9 67 -19 27 -42 73 -51 103 -25 77 -29 85 -54 88 -14 2 -21 -2 -21 -13z"/>
<path d="M1510 3652 c1 -29 38 -101 88 -171 26 -36 55 -78 65 -93 17 -28 97
-88 116 -88 34 0 -13 59 -86 109 -18 12 -33 28 -33 35 0 7 -18 41 -40 75 -22
33 -49 79 -59 100 -22 42 -51 62 -51 33z"/>
<path d="M2331 3534 c-13 -17 -21 -41 -21 -66 0 -35 3 -39 22 -36 17 2 25 14
35 53 19 76 3 99 -36 49z"/>
<path d="M1890 3331 c0 -32 19 -71 34 -71 8 0 38 -11 68 -25 62 -29 96 -32
105 -9 8 22 -18 41 -67 49 -24 4 -49 18 -71 41 -37 38 -69 45 -69 15z"/>
<path d="M2267 3324 c-13 -13 -8 -74 6 -74 21 0 49 36 45 57 -3 18 -38 30 -51
17z"/>
<path d="M1877 3233 c-20 -19 -4 -54 44 -97 28 -25 55 -46 60 -46 4 0 31 -20
60 -45 49 -44 53 -46 107 -43 46 2 57 6 60 22 5 25 -14 36 -69 36 -89 0 -198
73 -228 153 -10 27 -21 33 -34 20z"/>
<path d="M3690 3736 c0 -9 7 -16 16 -16 9 0 14 5 12 12 -6 18 -28 21 -28 4z"/>
<path d="M2945 4149 c-4 -5 -4 -21 -1 -35 6 -21 12 -25 39 -22 22 2 33 9 36
22 6 33 -57 63 -74 35z"/>
<path d="M3100 3164 c-11 -12 -11 -18 2 -31 26 -26 81 7 62 38 -9 15 -50 10
-64 -7z"/>
<path d="M2947 3164 c-16 -16 -6 -35 16 -32 12 2 22 10 22 18 0 16 -26 25 -38
14z"/>
<path d="M3430 2601 c0 -15 6 -21 21 -21 14 0 19 5 17 17 -5 26 -38 29 -38 4z"/>
<path d="M3018 2538 c-10 -25 4 -36 73 -59 50 -17 72 -20 80 -12 16 16 4 30
-51 58 -54 27 -95 32 -102 13z"/>
<path d="M1630 2516 c0 -26 91 -89 106 -74 7 7 -79 88 -93 88 -7 0 -13 -6 -13
-14z"/>
<path d="M3330 2491 c0 -17 4 -32 9 -36 12 -7 23 28 15 49 -10 26 -24 18 -24
-13z"/>
<path d="M2395 2455 c-3 -8 -7 -22 -10 -30 -7 -22 -33 -18 -67 10 -35 30 -48
31 -48 6 0 -11 20 -34 50 -55 28 -20 50 -42 50 -49 0 -15 -66 -47 -97 -47 -11
0 -30 11 -43 25 -16 17 -34 25 -56 25 -19 0 -44 9 -61 23 -86 72 -101 77 -208
77 -103 0 -144 -11 -115 -30 14 -9 54 -13 165 -14 46 -1 57 -6 115 -55 84 -70
150 -101 216 -101 50 0 84 19 84 48 0 6 11 28 25 48 26 38 41 94 31 119 -7 19
-25 19 -31 0z"/>
<path d="M3650 2390 c-30 -60 -32 -93 -5 -70 13 11 75 114 75 125 0 3 -9 5
-20 5 -14 0 -28 -17 -50 -60z"/>
<path d="M4941 2378 c-32 -34 -38 -48 -22 -48 16 0 71 51 71 66 0 23 -17 16
-49 -18z"/>
<path d="M3005 2330 c-9 -15 3 -30 24 -30 23 0 31 9 24 26 -6 16 -39 19 -48 4z"/>
<path d="M4513 2333 c-18 -6 -16 -33 1 -33 19 0 31 19 20 30 -5 4 -15 5 -21 3z"/>
<path d="M4791 2276 c-19 -23 10 -39 37 -20 12 8 22 19 22 25 0 14 -46 11 -59
-5z"/>
<path d="M3444 2219 c-8 -14 11 -33 25 -25 6 4 11 14 11 22 0 16 -26 19 -36 3z"/>
<path d="M2800 2206 c0 -14 29 -31 38 -22 2 3 2 12 -1 21 -8 19 -37 20 -37 1z"/>
<path d="M2924 2158 c-9 -15 50 -68 76 -68 32 0 25 37 -12 60 -38 23 -54 25
-64 8z"/>
<path d="M3635 2070 c-3 -5 1 -10 9 -10 9 0 16 5 16 10 0 6 -4 10 -9 10 -6 0
-13 -4 -16 -10z"/>
<path d="M2111 2025 c8 -37 159 -91 215 -76 32 8 34 24 4 32 -61 17 -187 52
-204 57 -13 4 -17 0 -15 -13z"/>
<path d="M2758 1969 c-41 -23 -5 -108 45 -109 24 0 22 46 -3 88 -11 17 -21 32
-22 32 -2 0 -11 -5 -20 -11z"/>
<path d="M2213 1814 c-13 -33 75 -67 116 -45 33 18 25 28 -33 45 -68 20 -75
20 -83 0z"/>
<path d="M2587 2803 c-13 -12 -7 -51 9 -57 24 -9 31 -8 48 10 12 12 13 20 6
35 -10 18 -50 26 -63 12z"/>
<path d="M5133 4768 c-29 -14 -29 -39 -2 -64 21 -19 21 -19 45 11 44 55 20 83
-43 53z"/>
<path d="M515 3859 c-10 -16 35 -59 61 -59 30 0 51 35 33 56 -13 16 -85 19
-94 3z"/>
<path d="M322 3157 c-43 -45 -19 -77 58 -77 51 0 80 15 80 40 0 57 -96 82
-138 37z"/>
<path d="M5655 3479 c-69 -17 -116 -78 -94 -122 24 -47 49 -57 142 -57 99 0
149 16 184 58 30 36 29 56 -6 94 -28 31 -33 33 -108 35 -43 1 -96 -2 -118 -8z"/>
<path d="M492 2285 c-36 -30 -45 -60 -25 -80 18 -19 15 -19 90 6 72 25 81 45
34 78 -38 27 -63 26 -99 -4z"/>
<path d="M3494 725 c-35 -53 8 -155 66 -155 44 0 50 83 10 148 -24 39 -53 42
-76 7z"/>
<path d="M2891 701 c-30 -41 -29 -110 2 -139 13 -12 31 -22 40 -22 45 0 62
100 27 158 -24 40 -43 41 -69 3z"/>
</g>
</svg>
